<svg width="24" height="26" viewBox="0 0 24 26" fill="none" xmlns="http://www.w3.org/2000/svg">
<path d="M12 23.1816C6.477 23.1816 2 18.4642 2 12.6445C2 6.82489 6.477 2.10742 12 2.10742C17.523 2.10742 22 6.82489 22 12.6445C22 18.4642 17.523 23.1816 12 23.1816ZM7.013 19.2365C8.42855 20.429 10.1877 21.0773 12 21.0742C13.97 21.0742 15.773 20.324 17.167 19.0806C16.5157 18.3764 15.7371 17.8171 14.877 17.4355C14.017 17.054 13.0931 16.8581 12.16 16.8594C11.1926 16.8582 10.2355 17.0689 9.34947 17.4781C8.46343 17.8874 7.66778 18.4862 7.013 19.2365ZM5.616 17.7234C6.45645 16.7836 7.47067 16.0351 8.59614 15.524C9.72161 15.013 10.9345 14.7502 12.16 14.752C13.3417 14.7503 14.512 14.9947 15.6037 15.471C16.6955 15.9473 17.6873 16.6461 18.522 17.5274C19.3781 16.2578 19.8836 14.7632 19.9826 13.2092C20.0815 11.6553 19.77 10.1029 19.0825 8.72415C18.395 7.34544 17.3585 6.19437 16.088 5.39863C14.8174 4.60289 13.3625 4.1936 11.8846 4.21616C10.4067 4.23873 8.96366 4.69226 7.71552 5.52646C6.46738 6.36065 5.46296 7.54289 4.81369 8.942C4.16442 10.3411 3.89569 11.9024 4.03732 13.4527C4.17894 15.0029 4.72537 16.4815 5.616 17.7245V17.7234ZM12 13.6982C10.9391 13.6982 9.92172 13.2542 9.17157 12.4637C8.42143 11.6733 8 10.6012 8 9.4834C8 8.36555 8.42143 7.29349 9.17157 6.50305C9.92172 5.71262 10.9391 5.26855 12 5.26855C13.0609 5.26855 14.0783 5.71262 14.8284 6.50305C15.5786 7.29349 16 8.36555 16 9.4834C16 10.6012 15.5786 11.6733 14.8284 12.4637C14.0783 13.2542 13.0609 13.6982 12 13.6982ZM12 11.5908C12.5304 11.5908 13.0391 11.3688 13.4142 10.9736C13.7893 10.5784 14 10.0423 14 9.4834C14 8.92448 13.7893 8.38844 13.4142 7.99323C13.0391 7.59801 12.5304 7.37598 12 7.37598C11.4696 7.37598 10.9609 7.59801 10.5858 7.99323C10.2107 8.38844 10 8.92448 10 9.4834C10 10.0423 10.2107 10.5784 10.5858 10.9736C10.9609 11.3688 11.4696 11.5908 12 11.5908Z" fill="black"/>
</svg>
