<svg width="235" height="20" viewBox="0 0 235 20" fill="none" xmlns="http://www.w3.org/2000/svg">
<g clip-path="url(#clip0)">
<path d="M15.105 11.8907C13.7149 11.8907 12.584 13.0216 12.584 14.4118C12.584 15.8019 13.7149 16.9328 15.105 16.9328C16.4954 16.9328 17.626 15.8019 17.626 14.4118C17.626 13.0216 16.4951 11.8907 15.105 11.8907ZM15.105 15.6723C14.4099 15.6723 13.8445 15.1069 13.8445 14.4118C13.8445 13.7166 14.4099 13.1513 15.105 13.1513C15.8002 13.1513 16.3655 13.7166 16.3655 14.4118C16.3655 15.107 15.8002 15.6723 15.105 15.6723Z" fill="black"/>
<path d="M6.4916 11.8907C5.10148 11.8907 3.97058 13.0216 3.97058 14.4118C3.97058 15.8019 5.10148 16.9328 6.4916 16.9328C7.88171 16.9328 9.01261 15.8019 9.01261 14.4118C9.01261 13.0216 7.88171 11.8907 6.4916 11.8907ZM6.4916 15.6723C5.79644 15.6723 5.23109 15.1069 5.23109 14.4118C5.23109 13.7166 5.79644 13.1513 6.4916 13.1513C7.18656 13.1513 7.7521 13.7166 7.7521 14.4118C7.7521 15.107 7.18675 15.6723 6.4916 15.6723Z" fill="black"/>
<path d="M16.8028 4.67483C16.6956 4.46202 16.4778 4.32776 16.2395 4.32776H12.9202V5.58827H15.8508L17.567 9.00171L18.6935 8.4353L16.8028 4.67483Z" fill="black"/>
<path d="M13.2143 13.8026H8.44539V15.0631H13.2143V13.8026Z" fill="black"/>
<path d="M4.60083 13.8026H2.41599C2.06786 13.8026 1.78575 14.0847 1.78575 14.4328C1.78575 14.7809 2.0679 15.063 2.41599 15.063H4.60087C4.94899 15.063 5.2311 14.7809 5.2311 14.4328C5.2311 14.0847 4.94895 13.8026 4.60083 13.8026Z" fill="black"/>
<path d="M19.8677 9.9496L18.628 8.35296C18.5089 8.19917 18.325 8.10925 18.1303 8.10925H13.5504V3.69749C13.5504 3.34937 13.2683 3.06726 12.9202 3.06726H2.41599C2.06786 3.06726 1.78575 3.34941 1.78575 3.69749C1.78575 4.04558 2.0679 4.32773 2.41599 4.32773H12.2899V8.73949C12.2899 9.08761 12.5721 9.36972 12.9202 9.36972H17.8216L18.7395 10.5521V13.8025H16.9958C16.6477 13.8025 16.3656 14.0846 16.3656 14.4327C16.3656 14.7809 16.6477 15.063 16.9958 15.063H19.3697C19.7179 15.063 20 14.7808 20 14.4327V10.3362C20 10.1962 19.9534 10.0601 19.8677 9.9496Z" fill="black"/>
<path d="M4.55883 10.6093H1.65965C1.31153 10.6093 1.02942 10.8914 1.02942 11.2395C1.02942 11.5876 1.31157 11.8697 1.65965 11.8697H4.55879C4.90692 11.8697 5.18903 11.5876 5.18903 11.2395C5.18907 10.8914 4.90692 10.6093 4.55883 10.6093Z" fill="black"/>
<path d="M6.0084 8.13025H0.630234C0.282148 8.13025 0 8.4124 0 8.76052C0 9.10865 0.282148 9.39076 0.630234 9.39076H6.0084C6.35652 9.39076 6.63863 9.10861 6.63863 8.76052C6.63863 8.41244 6.35652 8.13025 6.0084 8.13025Z" fill="black"/>
<path d="M7.03782 5.65125H1.65965C1.31153 5.65125 1.02942 5.93339 1.02942 6.28148C1.02942 6.6296 1.31157 6.91171 1.65965 6.91171H7.03782C7.38594 6.91171 7.66805 6.62957 7.66805 6.28148C7.66809 5.93339 7.38594 5.65125 7.03782 5.65125Z" fill="black"/>
</g>
<path d="M35.666 5.54V6.428H31.97V9.356H35.102V10.208H31.97V14H30.878V5.54H35.666ZM41.448 14L39.24 10.544H38.052V14H36.96V5.54H39.744C40.704 5.54 41.424 5.772 41.904 6.236C42.384 6.692 42.624 7.3 42.624 8.06C42.624 8.748 42.432 9.304 42.048 9.728C41.664 10.144 41.108 10.404 40.38 10.508L42.684 14H41.448ZM38.052 9.752H39.648C40.888 9.752 41.508 9.208 41.508 8.12C41.508 7.032 40.888 6.488 39.648 6.488H38.052V9.752ZM45.0481 6.428V9.32H48.2641V10.16H45.0481V13.112H48.6241V14H43.9561V5.54H48.6241V6.428H45.0481ZM51.1184 6.428V9.32H54.3344V10.16H51.1184V13.112H54.6944V14H50.0264V5.54H54.6944V6.428H51.1184ZM64.4135 11.804C64.4135 12.204 64.3175 12.576 64.1255 12.92C63.9335 13.264 63.6415 13.544 63.2495 13.76C62.8575 13.976 62.3735 14.084 61.7975 14.084C61.2375 14.084 60.7375 13.984 60.2975 13.784C59.8655 13.576 59.5175 13.296 59.2535 12.944C58.9975 12.584 58.8495 12.176 58.8095 11.72H59.9735C59.9975 11.96 60.0775 12.196 60.2135 12.428C60.3575 12.652 60.5575 12.84 60.8135 12.992C61.0775 13.136 61.3935 13.208 61.7615 13.208C62.2415 13.208 62.6095 13.08 62.8655 12.824C63.1215 12.568 63.2495 12.24 63.2495 11.84C63.2495 11.496 63.1575 11.216 62.9735 11C62.7975 10.784 62.5775 10.616 62.3135 10.496C62.0495 10.368 61.6895 10.232 61.2335 10.088C60.6975 9.912 60.2655 9.748 59.9375 9.596C59.6175 9.436 59.3415 9.2 59.1095 8.888C58.8855 8.576 58.7735 8.164 58.7735 7.652C58.7735 7.212 58.8775 6.824 59.0855 6.488C59.3015 6.152 59.6055 5.892 59.9975 5.708C60.3975 5.524 60.8655 5.432 61.4015 5.432C62.2335 5.432 62.8935 5.636 63.3815 6.044C63.8695 6.444 64.1535 6.956 64.2335 7.58H63.0575C62.9935 7.244 62.8215 6.948 62.5415 6.692C62.2615 6.436 61.8815 6.308 61.4015 6.308C60.9615 6.308 60.6095 6.424 60.3455 6.656C60.0815 6.88 59.9495 7.2 59.9495 7.616C59.9495 7.944 60.0335 8.212 60.2015 8.42C60.3775 8.62 60.5935 8.78 60.8495 8.9C61.1055 9.012 61.4575 9.14 61.9055 9.284C62.4495 9.46 62.8855 9.628 63.2135 9.788C63.5495 9.948 63.8335 10.192 64.0655 10.52C64.2975 10.84 64.4135 11.268 64.4135 11.804ZM72.3739 5.54V14H71.2699V10.088H66.9739V14H65.8819V5.54H66.9739V9.2H71.2699V5.54H72.3739ZM75.2121 5.54V14H74.1201V5.54H75.2121ZM78.0598 10.592V14H76.9678V5.54H79.6558C80.6238 5.54 81.3478 5.768 81.8278 6.224C82.3078 6.672 82.5478 7.288 82.5478 8.072C82.5478 8.864 82.2998 9.484 81.8038 9.932C81.3078 10.372 80.5918 10.592 79.6558 10.592H78.0598ZM79.5598 9.68C80.2238 9.68 80.6998 9.54 80.9878 9.26C81.2838 8.98 81.4318 8.584 81.4318 8.072C81.4318 7.544 81.2838 7.144 80.9878 6.872C80.6998 6.592 80.2238 6.452 79.5598 6.452H78.0598V9.68H79.5598ZM84.9153 10.592V14H83.8233V5.54H86.5113C87.4793 5.54 88.2033 5.768 88.6833 6.224C89.1633 6.672 89.4033 7.288 89.4033 8.072C89.4033 8.864 89.1553 9.484 88.6593 9.932C88.1633 10.372 87.4473 10.592 86.5113 10.592H84.9153ZM86.4153 9.68C87.0793 9.68 87.5553 9.54 87.8433 9.26C88.1393 8.98 88.2873 8.584 88.2873 8.072C88.2873 7.544 88.1393 7.144 87.8433 6.872C87.5553 6.592 87.0793 6.452 86.4153 6.452H84.9153V9.68H86.4153ZM91.7707 5.54V14H90.6787V5.54H91.7707ZM100.102 14H99.0104L94.6184 7.316V14H93.5264V5.54H94.6184L99.0104 12.236V5.54H100.102V14ZM105.698 5.456C106.682 5.456 107.506 5.7 108.17 6.188C108.842 6.676 109.294 7.34 109.526 8.18H108.374C108.174 7.668 107.838 7.256 107.366 6.944C106.902 6.632 106.35 6.476 105.71 6.476C105.134 6.476 104.618 6.612 104.162 6.884C103.706 7.148 103.346 7.528 103.082 8.024C102.826 8.52 102.698 9.104 102.698 9.776C102.698 10.464 102.83 11.06 103.094 11.564C103.358 12.06 103.722 12.444 104.186 12.716C104.658 12.98 105.198 13.112 105.806 13.112C106.326 13.112 106.802 13 107.234 12.776C107.666 12.552 108.018 12.228 108.29 11.804C108.57 11.372 108.738 10.868 108.794 10.292H105.47V9.476H109.718V10.484C109.646 11.156 109.438 11.764 109.094 12.308C108.75 12.852 108.286 13.284 107.702 13.604C107.118 13.924 106.454 14.084 105.71 14.084C104.894 14.084 104.174 13.904 103.55 13.544C102.926 13.176 102.438 12.668 102.086 12.02C101.742 11.364 101.57 10.616 101.57 9.776C101.57 8.936 101.742 8.192 102.086 7.544C102.438 6.888 102.926 6.376 103.55 6.008C104.174 5.64 104.89 5.456 105.698 5.456ZM118.039 5.432C118.823 5.432 119.527 5.616 120.151 5.984C120.783 6.352 121.279 6.868 121.639 7.532C121.999 8.188 122.179 8.932 122.179 9.764C122.179 10.596 121.999 11.344 121.639 12.008C121.279 12.664 120.783 13.176 120.151 13.544C119.527 13.912 118.823 14.096 118.039 14.096C117.255 14.096 116.543 13.912 115.903 13.544C115.271 13.176 114.775 12.664 114.415 12.008C114.055 11.344 113.875 10.596 113.875 9.764C113.875 8.932 114.055 8.188 114.415 7.532C114.775 6.868 115.271 6.352 115.903 5.984C116.543 5.616 117.255 5.432 118.039 5.432ZM118.039 6.452C117.455 6.452 116.931 6.588 116.467 6.86C116.011 7.124 115.651 7.508 115.387 8.012C115.131 8.508 115.003 9.092 115.003 9.764C115.003 10.428 115.131 11.012 115.387 11.516C115.651 12.02 116.011 12.408 116.467 12.68C116.931 12.944 117.455 13.076 118.039 13.076C118.615 13.076 119.131 12.94 119.587 12.668C120.051 12.396 120.411 12.012 120.667 11.516C120.931 11.012 121.063 10.428 121.063 9.764C121.063 9.092 120.931 8.508 120.667 8.012C120.411 7.508 120.051 7.124 119.587 6.86C119.131 6.588 118.615 6.452 118.039 6.452ZM124.207 5.54L126.787 12.788L129.403 5.54H130.591L127.483 14H126.103L123.007 5.54H124.207ZM132.786 6.428V9.32H136.002V10.16H132.786V13.112H136.362V14H131.694V5.54H136.362V6.428H132.786ZM142.253 14L140.045 10.544H138.857V14H137.765V5.54H140.549C141.509 5.54 142.229 5.772 142.709 6.236C143.189 6.692 143.429 7.3 143.429 8.06C143.429 8.748 143.237 9.304 142.853 9.728C142.469 10.144 141.913 10.404 141.185 10.508L143.489 14H142.253ZM138.857 9.752H140.453C141.693 9.752 142.313 9.208 142.313 8.12C142.313 7.032 141.693 6.488 140.453 6.488H138.857V9.752ZM150.51 9.26C151.134 9.452 151.618 9.624 151.962 9.776C152.306 9.928 152.606 10.168 152.862 10.496C153.118 10.816 153.246 11.252 153.246 11.804C153.246 12.204 153.146 12.576 152.946 12.92C152.754 13.264 152.454 13.544 152.046 13.76C151.638 13.976 151.138 14.084 150.546 14.084H150.51V15.044H150.138V14.06C149.378 13.988 148.758 13.74 148.278 13.316C147.798 12.884 147.53 12.352 147.474 11.72H148.638C148.67 12.056 148.814 12.372 149.07 12.668C149.334 12.956 149.69 13.136 150.138 13.208V10.136C149.522 9.952 149.042 9.788 148.698 9.644C148.362 9.492 148.066 9.256 147.81 8.936C147.562 8.616 147.438 8.188 147.438 7.652C147.438 7.212 147.55 6.824 147.774 6.488C147.998 6.152 148.314 5.892 148.722 5.708C149.13 5.524 149.602 5.432 150.138 5.432V4.4H150.51V5.444C151.254 5.5 151.846 5.728 152.286 6.128C152.726 6.528 152.986 7.012 153.066 7.58H151.89C151.834 7.276 151.69 7.004 151.458 6.764C151.226 6.524 150.91 6.372 150.51 6.308V9.26ZM148.614 7.604C148.614 8.012 148.742 8.328 148.998 8.552C149.262 8.776 149.642 8.972 150.138 9.14V6.284C149.674 6.284 149.302 6.4 149.022 6.632C148.75 6.856 148.614 7.18 148.614 7.604ZM150.522 13.232C151.018 13.232 151.402 13.1 151.674 12.836C151.946 12.572 152.082 12.236 152.082 11.828C152.082 11.404 151.946 11.076 151.674 10.844C151.402 10.612 151.014 10.416 150.51 10.256V13.232H150.522ZM153.99 6.56V5.54H156.414V14H155.262V6.56H153.99ZM157.963 9.716C157.963 11.076 158.187 12.136 158.635 12.896C159.083 13.656 159.859 14.036 160.963 14.036C162.067 14.036 162.843 13.656 163.291 12.896C163.747 12.136 163.975 11.076 163.975 9.716C163.975 8.372 163.747 7.32 163.291 6.56C162.843 5.8 162.067 5.42 160.963 5.42C159.859 5.42 159.083 5.8 158.635 6.56C158.187 7.312 157.963 8.364 157.963 9.716ZM162.895 9.716C162.895 10.412 162.843 10.996 162.739 11.468C162.643 11.932 162.455 12.304 162.175 12.584C161.895 12.864 161.491 13.004 160.963 13.004C160.443 13.004 160.043 12.864 159.763 12.584C159.483 12.304 159.291 11.932 159.187 11.468C159.091 10.996 159.043 10.412 159.043 9.716C159.043 9.028 159.091 8.452 159.187 7.988C159.291 7.524 159.483 7.156 159.763 6.884C160.043 6.604 160.443 6.464 160.963 6.464C161.491 6.464 161.895 6.604 162.175 6.884C162.455 7.156 162.643 7.524 162.739 7.988C162.843 8.452 162.895 9.028 162.895 9.716ZM165.334 9.716C165.334 11.076 165.558 12.136 166.006 12.896C166.454 13.656 167.23 14.036 168.334 14.036C169.438 14.036 170.214 13.656 170.662 12.896C171.118 12.136 171.346 11.076 171.346 9.716C171.346 8.372 171.118 7.32 170.662 6.56C170.214 5.8 169.438 5.42 168.334 5.42C167.23 5.42 166.454 5.8 166.006 6.56C165.558 7.312 165.334 8.364 165.334 9.716ZM170.266 9.716C170.266 10.412 170.214 10.996 170.11 11.468C170.014 11.932 169.826 12.304 169.546 12.584C169.266 12.864 168.862 13.004 168.334 13.004C167.814 13.004 167.414 12.864 167.134 12.584C166.854 12.304 166.662 11.932 166.558 11.468C166.462 10.996 166.414 10.412 166.414 9.716C166.414 9.028 166.462 8.452 166.558 7.988C166.662 7.524 166.854 7.156 167.134 6.884C167.414 6.604 167.814 6.464 168.334 6.464C168.862 6.464 169.266 6.604 169.546 6.884C169.826 7.156 170.014 7.524 170.11 7.988C170.214 8.452 170.266 9.028 170.266 9.716ZM176.954 10.592V14H175.862V5.54H178.55C179.518 5.54 180.242 5.768 180.722 6.224C181.202 6.672 181.442 7.288 181.442 8.072C181.442 8.864 181.194 9.484 180.698 9.932C180.202 10.372 179.486 10.592 178.55 10.592H176.954ZM178.454 9.68C179.118 9.68 179.594 9.54 179.882 9.26C180.178 8.98 180.326 8.584 180.326 8.072C180.326 7.544 180.178 7.144 179.882 6.872C179.594 6.592 179.118 6.452 178.454 6.452H176.954V9.68H178.454ZM183.75 5.54V10.616C183.75 11.448 183.934 12.064 184.302 12.464C184.67 12.856 185.178 13.052 185.826 13.052C186.466 13.052 186.966 12.852 187.326 12.452C187.686 12.052 187.866 11.44 187.866 10.616V5.54H188.958V10.616C188.958 11.768 188.67 12.636 188.094 13.22C187.526 13.796 186.762 14.084 185.802 14.084C184.85 14.084 184.086 13.796 183.51 13.22C182.942 12.636 182.658 11.768 182.658 10.616V5.54H183.75ZM195.139 14L192.931 10.544H191.743V14H190.651V5.54H193.435C194.395 5.54 195.115 5.772 195.595 6.236C196.075 6.692 196.315 7.3 196.315 8.06C196.315 8.748 196.123 9.304 195.739 9.728C195.355 10.144 194.799 10.404 194.071 10.508L196.375 14H195.139ZM191.743 9.752H193.339C194.579 9.752 195.199 9.208 195.199 8.12C195.199 7.032 194.579 6.488 193.339 6.488H191.743V9.752ZM201.391 5.456C202.423 5.456 203.275 5.712 203.947 6.224C204.619 6.728 205.083 7.42 205.339 8.3H204.187C203.971 7.74 203.623 7.296 203.143 6.968C202.663 6.632 202.075 6.464 201.379 6.464C200.827 6.464 200.331 6.6 199.891 6.872C199.459 7.136 199.115 7.52 198.859 8.024C198.611 8.52 198.487 9.104 198.487 9.776C198.487 10.44 198.611 11.02 198.859 11.516C199.115 12.012 199.459 12.396 199.891 12.668C200.331 12.932 200.827 13.064 201.379 13.064C202.075 13.064 202.663 12.9 203.143 12.572C203.623 12.236 203.971 11.788 204.187 11.228H205.339C205.083 12.108 204.619 12.804 203.947 13.316C203.275 13.82 202.423 14.072 201.391 14.072C200.599 14.072 199.899 13.892 199.291 13.532C198.683 13.164 198.207 12.656 197.863 12.008C197.527 11.352 197.359 10.608 197.359 9.776C197.359 8.936 197.527 8.188 197.863 7.532C198.207 6.876 198.683 6.368 199.291 6.008C199.899 5.64 200.599 5.456 201.391 5.456ZM213.292 5.54V14H212.188V10.088H207.892V14H206.8V5.54H207.892V9.2H212.188V5.54H213.292ZM219.994 12.044H216.274L215.566 14H214.39L217.522 5.696H218.758L221.878 14H220.702L219.994 12.044ZM219.682 11.192L218.134 6.92L216.586 11.192H219.682ZM228.335 11.804C228.335 12.204 228.239 12.576 228.047 12.92C227.855 13.264 227.563 13.544 227.171 13.76C226.779 13.976 226.295 14.084 225.719 14.084C225.159 14.084 224.659 13.984 224.219 13.784C223.787 13.576 223.439 13.296 223.175 12.944C222.919 12.584 222.771 12.176 222.731 11.72H223.895C223.919 11.96 223.999 12.196 224.135 12.428C224.279 12.652 224.479 12.84 224.735 12.992C224.999 13.136 225.315 13.208 225.683 13.208C226.163 13.208 226.531 13.08 226.787 12.824C227.043 12.568 227.171 12.24 227.171 11.84C227.171 11.496 227.079 11.216 226.895 11C226.719 10.784 226.499 10.616 226.235 10.496C225.971 10.368 225.611 10.232 225.155 10.088C224.619 9.912 224.187 9.748 223.859 9.596C223.539 9.436 223.263 9.2 223.031 8.888C222.807 8.576 222.695 8.164 222.695 7.652C222.695 7.212 222.799 6.824 223.007 6.488C223.223 6.152 223.527 5.892 223.919 5.708C224.319 5.524 224.787 5.432 225.323 5.432C226.155 5.432 226.815 5.636 227.303 6.044C227.791 6.444 228.075 6.956 228.155 7.58H226.979C226.915 7.244 226.743 6.948 226.463 6.692C226.183 6.436 225.803 6.308 225.323 6.308C224.883 6.308 224.531 6.424 224.267 6.656C224.003 6.88 223.871 7.2 223.871 7.616C223.871 7.944 223.955 8.212 224.123 8.42C224.299 8.62 224.515 8.78 224.771 8.9C225.027 9.012 225.379 9.14 225.827 9.284C226.371 9.46 226.807 9.628 227.135 9.788C227.471 9.948 227.755 10.192 227.987 10.52C228.219 10.84 228.335 11.268 228.335 11.804ZM230.896 6.428V9.32H234.112V10.16H230.896V13.112H234.472V14H229.804V5.54H234.472V6.428H230.896Z" fill="black"/>
<defs>
<clipPath id="clip0">
<rect width="20" height="20" fill="white"/>
</clipPath>
</defs>
</svg>
