<svg width="185" height="56" viewBox="0 0 185 56" fill="none" xmlns="http://www.w3.org/2000/svg">
<rect width="56" height="56" rx="28" fill="#131212" fill-opacity="0.05"/>
<path fill-rule="evenodd" clip-rule="evenodd" d="M23 21.8589C23 20.6497 24.3574 19.9375 25.3524 20.6247L35.0769 27.3407C35.9762 27.9618 35.9308 29.3051 34.9916 29.864L25.2671 35.6509C24.2672 36.2459 23 35.5254 23 34.3619V21.8589Z" fill="#131212"/>
<path d="M79.28 29.32V35H77.46V20.9H81.94C83.5533 20.9 84.76 21.28 85.56 22.04C86.36 22.7867 86.76 23.8133 86.76 25.12C86.76 26.44 86.3467 27.4733 85.52 28.22C84.6933 28.9533 83.5 29.32 81.94 29.32H79.28ZM81.78 27.8C82.8867 27.8 83.68 27.5667 84.16 27.1C84.6533 26.6333 84.9 25.9733 84.9 25.12C84.9 24.24 84.6533 23.5733 84.16 23.12C83.68 22.6533 82.8867 22.42 81.78 22.42H79.28V27.8H81.78ZM90.7058 33.58H95.7058V35H88.8858V20.9L90.7058 20.9V33.58ZM105.818 31.74H99.6177L98.4377 35H96.4777L101.698 21.16L103.758 21.16L108.958 35H106.998L105.818 31.74ZM105.298 30.32L102.718 23.2L100.138 30.32H105.298ZM120.82 20.9L116.2 29.66V35H114.36V29.66L109.72 20.9H111.84L115.3 27.72L118.74 20.9H120.82ZM128.517 20.9L132.817 32.98L137.177 20.9H139.157L133.977 35H131.677L126.517 20.9H128.517ZM142.815 20.9V35H140.995V20.9H142.815ZM157.621 27.94C157.621 29.3667 157.335 30.6133 156.761 31.68C156.188 32.7333 155.341 33.5533 154.221 34.14C153.115 34.7133 151.781 35 150.221 35H145.741V20.9H150.221C151.781 20.9 153.115 21.1867 154.221 21.76C155.341 22.32 156.188 23.1333 156.761 24.2C157.335 25.2533 157.621 26.5 157.621 27.94ZM150.081 33.36C151.921 33.36 153.328 32.8867 154.301 31.94C155.275 30.9933 155.761 29.66 155.761 27.94C155.761 26.22 155.275 24.8867 154.301 23.94C153.341 22.98 151.935 22.5 150.081 22.5L147.561 22.5V33.36H150.081ZM161.897 22.38V27.2H167.257V28.6H161.897V33.52H167.857V35H160.077V20.9H167.857V22.38H161.897ZM176.654 20.72C177.961 20.72 179.134 21.0267 180.174 21.64C181.228 22.2533 182.054 23.1133 182.654 24.22C183.254 25.3133 183.554 26.5533 183.554 27.94C183.554 29.3267 183.254 30.5733 182.654 31.68C182.054 32.7733 181.228 33.6267 180.174 34.24C179.134 34.8533 177.961 35.16 176.654 35.16C175.348 35.16 174.161 34.8533 173.094 34.24C172.041 33.6267 171.214 32.7733 170.614 31.68C170.014 30.5733 169.714 29.3267 169.714 27.94C169.714 26.5533 170.014 25.3133 170.614 24.22C171.214 23.1133 172.041 22.2533 173.094 21.64C174.161 21.0267 175.348 20.72 176.654 20.72ZM176.654 22.42C175.681 22.42 174.808 22.6467 174.034 23.1C173.274 23.54 172.674 24.18 172.234 25.02C171.808 25.8467 171.594 26.82 171.594 27.94C171.594 29.0467 171.808 30.02 172.234 30.86C172.674 31.7 173.274 32.3467 174.034 32.8C174.808 33.24 175.681 33.46 176.654 33.46C177.614 33.46 178.474 33.2333 179.234 32.78C180.008 32.3267 180.608 31.6867 181.034 30.86C181.474 30.02 181.694 29.0467 181.694 27.94C181.694 26.82 181.474 25.8467 181.034 25.02C180.608 24.18 180.008 23.54 179.234 23.1C178.474 22.6467 177.614 22.42 176.654 22.42Z" fill="#131212"/>
</svg>
